# xmcd
#
# Track frame offsets:
#	150
#	16953
#	31959
#	44327
#	62254
#	82115
#	99549
#	118013
#	137927
#	159510
#	175751
#	190683
#	208270
#	225861
#	241020
#
# Disc length: 3407 seconds
#
# Revision: 1
# Processed by: cddbd v1.5.2PL0 Copyright (c) Steve Scherf et al.
# Submitted via: audiograbber 1.83.01
#
DISCID=ba0d4d0f
DTITLE=Vince Gill - CB8601
DYEAR=1900
DGENRE=
TTITLE0=Vince Gill - Next Big Thing
TTITLE1=Vince Gill - One More Last Chance
TTITLE2=Vince Gill - Pretty Words
TTITLE3=Vince Gill - Shoot Straight From Your Heart
TTITLE4=Vince Gill - Which Bridge To Cross, Which Bridge To Burn
TTITLE5=Vince Gill - You Better Think Twice
TTITLE6=Vince Gill - My Kind Of Woman - My Kind Of Man
TTITLE7=Vince Gill - Feels Like Love
TTITLE8=Vince Gill - Young Man's Town
TTITLE9=Vince Gill - High Lonesome Sound
TTITLE10=Vince Gill - Don't Come Crying To Me
TTITLE11=Vince Gill - Someday
TTITLE12=Vince Gill - In These Last Few Days
TTITLE13=Vince Gill - Kindly Keep It Country
TTITLE14=Vince Gill - A Little More Love
EXTD=
EXTT0=
EXTT1=
EXTT2=
EXTT3=
EXTT4=
EXTT5=
EXTT6=
EXTT7=
EXTT8=
EXTT9=
EXTT10=
EXTT11=
EXTT12=
EXTT13=
EXTT14=
PLAYORDER=
